<?xml version="1.0" encoding="UTF-8"?>
<svg version="1.1" xmlns="http://www.w3.org/2000/svg" width="512" height="512">
<path d="M0 0 C1.01790619 0.00215515 2.03581238 0.0043103 3.08456421 0.00653076 C17.69363523 0.05620146 32.02575853 0.30709809 46.375 3.3125 C47.34985352 3.51117676 48.32470703 3.70985352 49.32910156 3.91455078 C97.37402273 13.96468706 141.56847595 35.56129574 176.87475586 69.90942383 C178.93859956 71.83959628 181.16756034 73.55032168 183.375 75.3125 C184.47309154 76.46716769 185.5374861 77.65499631 186.5625 78.875 C188.5262211 81.18501171 190.50144722 83.44563755 192.58984375 85.64453125 C227.92334533 122.92509775 248.89949109 173.82031937 255.375 224.3125 C255.50538162 225.31636749 255.50538162 225.31636749 255.63839722 226.34051514 C256.32285735 231.99415419 256.56375037 237.57749557 256.61328125 243.26953125 C256.6230751 244.20225357 256.63286896 245.13497589 256.64295959 246.09596252 C256.81566965 266.82192122 256.65385844 286.94119923 252.375 307.3125 C252.16601074 308.32779785 251.95702148 309.3430957 251.74169922 310.38916016 C244.95402719 342.33443608 232.26042074 375.33259801 212.23828125 401.453125 C210.46608818 405.27015624 212.70502407 409.34421635 213.9375 413.125 C217.34814467 425.65320961 216.21534144 438.30488236 210.0546875 449.76953125 C202.54344198 461.81625562 192.21432908 469.01385168 178.375 472.3125 C168.92480618 473.16440427 161.05816902 472.48823966 152.14453125 469.08984375 C148.92372222 468.1858367 147.52529864 468.21924568 144.375 469.3125 C142.01832064 470.69350253 139.76821019 472.11237867 137.5 473.625 C110.69239484 490.82298403 81.27771973 502.15388842 50.125 508.5625 C49.39442383 508.71372314 48.66384766 508.86494629 47.91113281 509.02075195 C32.33677726 512.02796779 16.88736931 512.71969279 1.0625 512.6875 C-0.45177582 512.68668427 -0.45177582 512.68668427 -1.99664307 512.68585205 C-18.50623539 512.64508601 -34.42282001 511.73779309 -50.625 508.3125 C-51.66688477 508.09287598 -52.70876953 507.87325195 -53.78222656 507.64697266 C-98.12300759 497.97523391 -138.67011393 477.15597348 -172.1796875 446.53515625 C-174.52651662 444.40201605 -176.91534586 442.32617927 -179.3125 440.25 C-182.77691615 437.17388969 -185.85320962 433.94738812 -188.8359375 430.40625 C-190.05541215 428.9790919 -191.31292852 427.58378521 -192.6015625 426.21875 C-223.08648108 393.84930918 -242.73493176 350.50164415 -251.625 307.3125 C-251.83527832 306.31138184 -252.04555664 305.31026367 -252.26220703 304.27880859 C-258.21755077 274.53981179 -258.73454951 240.06430442 -252.625 210.3125 C-252.42632324 209.29994141 -252.22764648 208.28738281 -252.02294922 207.24414062 C-244.65299943 170.38887112 -229.85817801 135.66776148 -207.625 105.3125 C-207.20895508 104.73951172 -206.79291016 104.16652344 -206.36425781 103.57617188 C-200.8398153 96.01456381 -194.82292517 89.07595048 -188.38671875 82.28515625 C-186.50631657 80.29518423 -184.72849377 78.25664656 -182.99609375 76.13671875 C-181.07929393 73.85361122 -179.27211124 71.96426711 -177 70.0625 C-174.71117944 68.12124108 -172.47365787 66.16877576 -170.296875 64.1015625 C-137.84833917 33.34512824 -94.77169983 13.81574549 -51.4375 4.5625 C-50.51267822 4.36366211 -49.58785645 4.16482422 -48.63500977 3.95996094 C-32.42831484 0.66808631 -16.49462105 -0.0628085 0 0 Z " fill="#5AC87F" transform="translate(255.625,-0.3125)"/>
<path d="M0 0 C65.92072354 0 128.9412667 23.32909042 176.49975586 69.59692383 C178.56359956 71.52709628 180.79256034 73.23782168 183 75 C184.09809154 76.15466769 185.1624861 77.34249631 186.1875 78.5625 C188.1512211 80.87251171 190.12644722 83.13313755 192.21484375 85.33203125 C227.54834533 122.61259775 248.52449109 173.50781937 255 224 C255.08692108 224.669245 255.17384216 225.33848999 255.26339722 226.02801514 C255.94785735 231.68165419 256.18875037 237.26499557 256.23828125 242.95703125 C256.2480751 243.88975357 256.25786896 244.82247589 256.26795959 245.78346252 C256.44066965 266.50942122 256.27885844 286.62869923 252 307 C251.79101074 308.01529785 251.58202148 309.0305957 251.36669922 310.07666016 C244.57902719 342.02193608 231.88542074 375.02009801 211.86328125 401.140625 C210.09108818 404.95765624 212.33002407 409.03171635 213.5625 412.8125 C216.97314467 425.34070961 215.84034144 437.99238236 209.6796875 449.45703125 C202.16844198 461.50375562 191.83932908 468.70135168 178 472 C168.54980618 472.85190427 160.68316902 472.17573966 151.76953125 468.77734375 C148.54872222 467.8733367 147.15029864 467.90674568 144 469 C141.64332064 470.38100253 139.39321019 471.79987867 137.125 473.3125 C95.43876373 500.05562836 49.19678002 512 0 512 C0 442.7 0 373.4 0 302 C4.29 301.34 8.58 300.68 13 300 C24.91019603 295.81752844 33.64438056 289.0375372 39.4375 277.8125 C44.54502515 266.94263878 45.9206132 255.9874429 43.08984375 244.21484375 C38.63891008 231.97835409 30.54031951 221.97725466 18.75 216.125 C11.95357098 213.3954425 11.95357098 213.3954425 0 212 C0 142.04 0 72.08 0 0 Z " fill="#00AA5E" transform="translate(256,0)"/>
<path d="M0 0 C1.22494944 1.02207522 2.43407921 2.06346971 3.625 3.125 C4.21667969 3.60195312 4.80835938 4.07890625 5.41796875 4.5703125 C12.90391571 11.14736965 18.19811592 22.0815411 18.8984375 31.99609375 C19.32550323 45.5815622 16.91348536 56.70433608 7.625 67.125 C7.14804687 67.71667969 6.67109375 68.30835938 6.1796875 68.91796875 C0.30387732 75.60576275 -8.81702553 79.98550638 -17.375 82.125 C-20.345 82.125 -23.315 82.125 -26.375 82.125 C-26.375 151.425 -26.375 220.725 -26.375 292.125 C-53.15215434 292.125 -53.15215434 292.125 -63.3125 290.5 C-65.05853516 290.23376831 -65.05853516 290.23376831 -66.83984375 289.9621582 C-116.29046562 282.04401175 -161.96374539 260.12687921 -198.9296875 226.34765625 C-201.27651662 224.21451605 -203.66534586 222.13867927 -206.0625 220.0625 C-210.21548375 216.38984356 -213.84483444 212.39298152 -217.375 208.125 C-215.86468674 204.58683947 -213.79906644 202.29133853 -211.09375 199.578125 C-210.25199219 198.73378906 -209.41023438 197.88945312 -208.54296875 197.01953125 C-207.66253906 196.14683594 -206.78210938 195.27414062 -205.875 194.375 C-204.99457031 193.48683594 -204.11414063 192.59867188 -203.20703125 191.68359375 C-202.36527344 190.84441406 -201.52351563 190.00523437 -200.65625 189.140625 C-199.49706055 187.98481934 -199.49706055 187.98481934 -198.31445312 186.80566406 C-196.375 185.125 -196.375 185.125 -194.375 185.125 C-194.12097412 184.54631165 -193.86694824 183.96762329 -193.60522461 183.37139893 C-192.23645406 180.87201413 -190.70278141 179.19880805 -188.69140625 177.18261719 C-187.56013306 176.04188751 -187.56013306 176.04188751 -186.40600586 174.87811279 C-185.18409546 173.66227509 -185.18409546 173.66227509 -183.9375 172.421875 C-183.10162354 171.58408508 -182.26574707 170.74629517 -181.40454102 169.88311768 C-179.63836443 168.11558097 -177.86966312 166.35056398 -176.09863281 164.58789062 C-173.37853119 161.87851726 -170.66928001 159.15862235 -167.9609375 156.4375 C-166.24543283 154.72331643 -164.52930814 153.0097531 -162.8125 151.296875 C-161.99789307 150.4782196 -161.18328613 149.65956421 -160.34399414 148.81610107 C-159.21272095 147.69428436 -159.21272095 147.69428436 -158.05859375 146.54980469 C-157.39400146 145.88680359 -156.72940918 145.22380249 -156.04467773 144.54071045 C-154.375 143.125 -154.375 143.125 -152.375 143.125 C-152.12878906 142.55426758 -151.88257813 141.98353516 -151.62890625 141.39550781 C-150.16601003 138.7465719 -148.44854681 136.93951454 -146.3125 134.796875 C-145.51585937 133.99765625 -144.71921875 133.1984375 -143.8984375 132.375 C-143.06570312 131.55 -142.23296875 130.725 -141.375 129.875 C-140.54226562 129.03453125 -139.70953125 128.1940625 -138.8515625 127.328125 C-138.05492187 126.5340625 -137.25828125 125.74 -136.4375 124.921875 C-135.70660156 124.19323242 -134.97570312 123.46458984 -134.22265625 122.71386719 C-132.375 121.125 -132.375 121.125 -130.375 121.125 C-130.16360886 120.58600067 -129.95221771 120.04700134 -129.73442078 119.4916687 C-127.8665882 116.23988604 -125.29687764 113.84339391 -122.62426758 111.25830078 C-122.037155 110.6821402 -121.45004242 110.10597961 -120.84513855 109.51235962 C-119.57253216 108.2640687 -118.29780864 107.0179333 -117.02121925 105.77371597 C-115.00275459 103.80394053 -112.99277336 101.82588761 -110.98527527 99.84494019 C-105.27809516 94.21409569 -99.56447121 88.5900722 -93.82446289 82.99267578 C-90.31233973 79.56661943 -86.81743381 76.1238013 -83.33316612 72.66942978 C-82.00181459 71.356053 -80.66405155 70.04914312 -79.31989479 68.74887466 C-77.44277378 66.93184669 -75.58832071 65.09429293 -73.73754883 63.25048828 C-73.17605133 62.7172998 -72.61455383 62.18411133 -72.03604126 61.63476562 C-70.30066158 59.95456647 -70.30066158 59.95456647 -68.375 57.125 C-68.48100265 53.73003334 -69.28578149 51.37689135 -70.4140625 48.19140625 C-73.59046064 38.05533902 -71.5700892 26.657037 -67.375 17.125 C-60.68223047 4.91849806 -50.64927121 -2.51707422 -37.75 -7.1875 C-24.32646185 -9.95356241 -11.28357011 -8.04116491 0 0 Z " fill="#7EE780" transform="translate(282.375,219.875)"/>
<path d="M0 0 C0 19.47 0 38.94 0 59 C-7.425 59.99 -7.425 59.99 -15 61 C-18.80179802 61.80011031 -22.5054575 62.62860679 -26.25 63.625 C-27.22670654 63.88442383 -28.20341309 64.14384766 -29.2097168 64.41113281 C-50.1494201 70.20191598 -70.19080565 80.19805804 -87 94 C-87.5563916 94.45101074 -88.1127832 94.90202148 -88.68603516 95.36669922 C-123.44243073 123.66436565 -144.05918219 163.53263971 -149 208 C-168.8 208 -188.6 208 -209 208 C-207.83135153 185.79567912 -207.83135153 185.79567912 -206 178 C-205.7848877 177.05833984 -205.56977539 176.11667969 -205.34814453 175.14648438 C-196.23488934 137.05121149 -178.80368693 103.96930348 -153.27832031 74.47802734 C-152.1145038 73.13239228 -150.95912454 71.77947166 -149.8046875 70.42578125 C-146.14719371 66.2017345 -142.36721023 62.38863093 -138.09375 58.7890625 C-136.6665919 57.56958785 -135.27128521 56.31207148 -133.90625 55.0234375 C-103.85720644 26.72382456 -62.11801244 7.68736816 -21.5 1.3125 C-20.74847656 1.18294922 -19.99695313 1.05339844 -19.22265625 0.91992188 C-12.61035143 -0.13380967 -6.91805756 0 0 0 Z " fill="#4A696F" transform="translate(241,33)"/>
<path d="M0 0 C19.8 0 39.6 0 60 0 C60 11.27437642 60 11.27437642 59.265625 16.171875 C59.02634277 17.77518677 59.02634277 17.77518677 58.78222656 19.41088867 C58.51877441 21.06374878 58.51877441 21.06374878 58.25 22.75 C58.06663086 23.90669189 57.88326172 25.06338379 57.69433594 26.25512695 C56.3514601 34.43388576 54.67471611 42.14407282 52 50 C51.43982413 51.73688887 50.87995637 53.47387714 50.3203125 55.2109375 C43.45874342 76.09512954 34.20613022 94.73505268 22 113 C21.43514893 112.93143799 20.87029785 112.86287598 20.28833008 112.79223633 C4.20021624 110.91031957 -8.80113457 111.76196827 -22.5234375 121.015625 C-28.73505622 125.99275798 -33.00965408 132.67294389 -36 140 C-36.3609375 140.87398437 -36.721875 141.74796875 -37.09375 142.6484375 C-38.26601685 146.98380369 -38.25386187 150.97029838 -38.1875 155.4375 C-38.18685547 156.25798828 -38.18621094 157.07847656 -38.18554688 157.92382812 C-38.15115133 162.7124529 -37.79446023 167.27772837 -37 172 C-53.9870783 183.47251291 -71.60693246 192.33677647 -91 199 C-91.90733887 199.31598145 -92.81467773 199.63196289 -93.74951172 199.95751953 C-111.66705789 206.10220798 -130.0119423 210 -149 210 C-149 189.87 -149 169.74 -149 149 C-142.4 148.01 -135.8 147.02 -129 146 C-125.32558563 145.16534191 -121.8314148 144.33661426 -118.25 143.25 C-116.9513501 142.86593994 -116.9513501 142.86593994 -115.62646484 142.47412109 C-107.43541381 139.97016796 -99.67896598 136.77768446 -92 133 C-91.05350586 132.54004639 -91.05350586 132.54004639 -90.08789062 132.07080078 C-74.73327321 124.52262112 -61.68493468 114.40000098 -49 103 C-48.32453125 102.39800781 -47.6490625 101.79601562 -46.953125 101.17578125 C-18.88167753 74.64157971 -5.33016177 37.31113241 0 0 Z " fill="#374949" transform="translate(420,271)"/>
<path d="M0 0 C10.66054499 0 20.33356619 0.81021567 30.6875 3.25 C31.64156738 3.47179932 32.59563477 3.69359863 33.57861328 3.92211914 C41.86403548 5.89023713 49.95016938 8.22792803 58 11 C58.63534668 11.21736816 59.27069336 11.43473633 59.92529297 11.65869141 C87.97083149 21.36378491 112.15633942 36.36371819 134.52197266 55.72167969 C135.86760772 56.8854962 137.22052834 58.04087546 138.57421875 59.1953125 C142.7982655 62.85280629 146.61136907 66.63278977 150.2109375 70.90625 C151.43041215 72.3334081 152.68792852 73.72871479 153.9765625 75.09375 C167.0828522 89.0102467 177.05703736 105.19270688 186 122 C186.37995117 122.70914551 186.75990234 123.41829102 187.15136719 124.14892578 C195.99797872 140.94118057 201.80668164 159.54178365 206 178 C206.19553467 178.83289551 206.39106934 179.66579102 206.5925293 180.52392578 C208.53078149 189.76461645 208.48884994 198.28814892 209 208 C189.2 208 169.4 208 149 208 C148.01 200.08 148.01 200.08 147 192 C146.32331763 188.763693 145.63630498 185.66676123 144.75 182.5 C144.53456543 181.71085205 144.31913086 180.9217041 144.09716797 180.10864258 C140.71405018 168.05976166 136.27343968 156.88895244 130.125 145.98828125 C129 143 129 143 129.71484375 140.3828125 C130.13894531 139.59648437 130.56304687 138.81015625 131 138 C135.69654716 125.07887742 136.47122546 113.20682254 132 100 C126.25637265 88.07691451 117.37221629 80.43532282 105 76 C94.39797815 72.63063865 84.49549325 73.63090507 74 77 C72.38544922 77.93005859 72.38544922 77.93005859 70.73828125 78.87890625 C65.94860478 80.3153087 64.27675212 79.29680315 59.98510742 77.06274414 C59.12377197 76.58828857 58.26243652 76.11383301 57.375 75.625 C38.9262094 66.17331456 20.54633507 61.28292612 0 59 C0 39.53 0 20.06 0 0 Z " fill="#374949" transform="translate(271,33)"/>
<path d="M0 0 C0 30.69 0 61.38 0 93 C-3.3 94.65 -6.6 96.3 -10 98 C-16.09163867 102.24865294 -19.81228317 106.31245304 -22.50024414 113.23535156 C-24.24858723 116.28229624 -25.51521519 118.48829785 -28.93967819 119.66847229 C-35.17673238 120.74082221 -41.51124089 120.37320537 -47.80859375 120.171875 C-49.8612013 120.1494784 -51.91387323 120.13240396 -53.96656799 120.12042236 C-59.35564966 120.0747175 -64.74081669 119.95695839 -70.12835693 119.82397461 C-75.63125646 119.70095943 -81.13479215 119.64635779 -86.63867188 119.5859375 C-97.42749639 119.45744432 -108.21342206 119.25279139 -119 119 C-119.1880871 88.59682705 -100.39870842 58.338077 -79.75 37.3125 C-73.04566637 30.66968948 -65.99221511 25.00994881 -58 20 C-57.38044434 19.61118652 -56.76088867 19.22237305 -56.12255859 18.82177734 C-39.46242245 8.55669727 -19.81923703 0 0 0 Z " fill="#4A696F" transform="translate(241,122)"/>
<path d="M0 0 C30.03 0 60.06 0 91 0 C88.67389034 16.28276762 88.67389034 16.28276762 86.6875 22.625 C86.35939331 23.69790283 86.35939331 23.69790283 86.0246582 24.79248047 C79.35064111 46.12349099 68.2995754 63.75976354 53 80 C52.10087891 80.99580078 52.10087891 80.99580078 51.18359375 82.01171875 C31.0251338 103.47634241 2.49904479 114.50496671 -26 119 C-26.66 119 -27.32 119 -28 119 C-28 88.97 -28 58.94 -28 28 C-24.04 26.02 -20.08 24.04 -16 22 C-7.83501615 15.10748117 -5.4034254 10.03493289 0 0 Z " fill="#374949" transform="translate(299,271)"/>
<path d="M0 0 C16.6631137 2.38044481 16.6631137 2.38044481 22.875 4.125 C23.98657471 4.43280396 23.98657471 4.43280396 25.12060547 4.74682617 C33.24343958 7.14334661 40.6006963 10.93743952 48 15 C47.76023437 16.26070312 47.76023437 16.26070312 47.515625 17.546875 C45.28804814 32.46488974 47.77434085 44.92842907 56.52734375 57.12890625 C63.10710399 65.28780895 72.79626873 70.72528284 83 73 C90.45494782 73.54623457 97.62352146 73.16321392 105 72 C112.11250077 86.44476983 119 102.56769419 119 119 C88.64 119 58.28 119 27 119 C25.02 115.37 23.04 111.74 21 108 C15.23231779 100.34144761 8.81648844 97.40824422 0 93 C0 62.31 0 31.62 0 0 Z " fill="#384949" transform="translate(271,122)"/>
<path d="M0 0 C19.8 0 39.6 0 60 0 C61.32 7.92 62.64 15.84 64 24 C65.14402924 28.3045302 66.25096502 32.29259404 67.75 36.4375 C68.09361572 37.42282715 68.43723145 38.4081543 68.79125977 39.42333984 C75.49473417 58.19795342 85.08591301 74.09290838 97 90 C95.55419034 93.31613882 93.75170208 95.49185728 91.19287109 98.03417969 C90.41221283 98.81468689 89.63155457 99.59519409 88.82723999 100.39935303 C87.98448517 101.23178528 87.14173035 102.06421753 86.2734375 102.921875 C85.41062164 103.78186096 84.54780579 104.64184692 83.65884399 105.52789307 C80.90221971 108.2733231 78.13872201 111.0117169 75.375 113.75 C73.50475143 115.61021783 71.63495411 117.47088946 69.765625 119.33203125 C65.1823064 123.89329945 60.59332522 128.44881011 56 133 C34.65131152 123.08063291 19.77022254 83.81102695 12.10546875 63.09765625 C4.86091059 42.63950232 0 21.75128792 0 0 Z " fill="#4A696F" transform="translate(32,271)"/>
<path d="M0 0 C7.20242321 3.94905591 13.15731087 9.35821128 18 16 C18 16.66 18 17.32 18 18 C18.66 18 19.32 18 20 18 C20.65134925 19.56020867 21.29582964 21.12328579 21.9375 22.6875 C22.47697266 23.99267578 22.47697266 23.99267578 23.02734375 25.32421875 C26.80026884 35.70355084 26.21179524 48.10745915 22.2578125 58.32421875 C16.41668465 70.75022054 7.70689805 78.85165679 -5 84 C-17.21607672 88.1048267 -29.19625132 86.63585713 -41 82 C-41.66 81.67 -42.32 81.34 -43 81 C-43 80.34 -43 79.68 -43 79 C-43.58136719 78.73058594 -44.16273438 78.46117187 -44.76171875 78.18359375 C-54.75706974 72.89809401 -61.07725436 62.93429889 -64.41333008 52.39111328 C-65.37755912 48.4611677 -65.49028561 44.65650067 -65.4375 40.625 C-65.42847656 39.79355469 -65.41945313 38.96210938 -65.41015625 38.10546875 C-65.08281403 26.44844848 -60.81643666 17.65578556 -53 9 C-46.38851501 3.0296287 -39.48513654 -0.46305884 -31 -3 C-21.11553634 -6.29482122 -9.28131238 -4.08474425 0 0 Z " fill="#5AC87F" transform="translate(446,386)"/>
<path d="M0 0 C10.12270282 8.15781077 15.11063583 18.26253652 17 31 C18.22162528 42.41880294 15.10889179 54.42114538 8.05859375 63.5 C-0.93921484 74.01569978 -10.81120896 79.96849016 -24.78125 81.3828125 C-32.97872661 81.63273557 -39.63318502 80.61007778 -47 77 C-47.85207031 76.5875 -48.70414062 76.175 -49.58203125 75.75 C-61.01071238 69.57043662 -67.5842768 60.03284573 -72 48 C-75.06400755 36.23270719 -73.40583795 23.84147843 -67.4921875 13.31640625 C-60.13597784 2.07680219 -50.46572318 -4.98076744 -37.4375 -8.3125 C-24.02940882 -10.78491398 -11.24198426 -7.63900625 0 0 Z " fill="#5AC87F" transform="translate(390,115)"/>
<path d="M0 0 C30.36 0 60.72 0 92 0 C92.495 2.97 92.495 2.97 93 6 C91.18372469 8.48936709 89.52824102 10.35976494 87.33032227 12.46435547 C86.40882889 13.38738213 86.40882889 13.38738213 85.46871948 14.32905579 C83.43410047 16.35879808 81.37581573 18.36262815 79.31640625 20.3671875 C77.90098218 21.76955592 76.48709583 23.17347795 75.07469177 24.57888794 C71.35311514 28.27373761 67.61099849 31.9470876 63.86425781 35.61639404 C60.04469688 39.36434834 56.24487585 43.13219761 52.44335938 46.8984375 C44.98145804 54.28526509 37.49771297 61.6495367 30 69 C25.87907287 67.16763997 24.07280897 64.63121716 21.75 60.875 C21.36086426 60.25246338 20.97172852 59.62992676 20.57080078 58.98852539 C14.20584358 48.61738925 9.1080107 38.00705858 5.125 26.5 C4.83866699 25.6948999 4.55233398 24.8897998 4.25732422 24.06030273 C1.57202955 15.90349814 1.11890163 8.95121302 0 0 Z " fill="#4A696F" transform="translate(122,271)"/>
<path d="M0 0 C11.9103408 0 21.08338585 3.05215324 30 11 C30.59167969 11.47695312 31.18335938 11.95390625 31.79296875 12.4453125 C39.27891571 19.02236965 44.57311592 29.9565411 45.2734375 39.87109375 C45.70050323 53.4565622 43.28848536 64.57933608 34 75 C33.52304687 75.59167969 33.04609375 76.18335938 32.5546875 76.79296875 C26.67887732 83.48076275 17.55797447 87.86050638 9 90 C6.03 90 3.06 90 0 90 C0 60.3 0 30.6 0 0 Z " fill="#5AC87F" transform="translate(256,212)"/>
</svg>
